<svg width="62" height="31" viewBox="0 0 62 31" fill="none" xmlns="http://www.w3.org/2000/svg">
<path d="M1.70312 19.8131C1.70312 17.7616 2.06863 15.9695 2.79963 14.4367C3.55421 12.904 4.56818 11.7249 5.84154 10.8996C7.13848 10.0743 8.57691 9.66162 10.1568 9.66162C11.5245 9.66162 12.7035 9.9328 13.6939 10.4752C14.6843 11.0175 15.4507 11.7485 15.993 12.6682V26.9935C15.4507 27.9131 14.6725 28.6441 13.6586 29.1865C12.6682 29.7288 11.5009 30 10.1568 30C8.57691 30 7.13848 29.5873 5.84154 28.762C4.56818 27.9367 3.55421 26.7577 2.79963 25.2249C2.06863 23.6686 1.70312 21.8646 1.70312 19.8131ZM15.993 19.8131C15.993 18.5398 15.6393 17.5376 14.9319 16.8066C14.2481 16.0756 13.3992 15.7101 12.3852 15.7101C11.3476 15.7101 10.4869 16.0756 9.80311 16.8066C9.11926 17.514 8.77734 18.5162 8.77734 19.8131C8.77734 21.0865 9.11926 22.1005 9.80311 22.855C10.4869 23.586 11.3476 23.9515 12.3852 23.9515C13.3992 23.9515 14.2481 23.586 14.9319 22.855C15.6393 22.124 15.993 21.1101 15.993 19.8131Z" fill="#1C5883"/>
<path d="M23.7229 2.53828V30H16.4493V2.53828H23.7229Z" fill="#1C5883"/>
<path d="M43.9283 8.99561C46.5508 8.99561 48.6042 9.78729 50.0886 11.3707C51.5978 12.9541 52.3524 15.1188 52.3524 17.865V30.0001H45.0787V18.8299C45.0787 17.7166 44.7695 16.8506 44.151 16.2321C43.5325 15.6136 42.6913 15.3044 41.6275 15.3044C40.5636 15.3044 39.7225 15.6136 39.1039 16.2321C38.4854 16.8506 38.1762 17.7166 38.1762 18.8299V30.0001H30.9025V18.8299C30.9025 17.7166 30.5933 16.8506 29.9748 16.2321C29.381 15.6136 28.5522 15.3044 27.4884 15.3044C26.3998 15.3044 25.5463 15.6136 24.9278 16.2321C24.3093 16.8506 24 17.7166 24 18.8299L24.0002 11.927C24.6435 11.0364 25.472 10.3316 26.4864 9.81204C27.5255 9.26775 28.713 8.99561 30.049 8.99561C31.5829 8.99561 32.9436 9.3296 34.1312 9.99759C35.3434 10.6656 36.2959 11.6057 36.9887 12.818C37.7309 11.6799 38.7081 10.7645 39.9204 10.0718C41.1327 9.35434 42.4686 8.99561 43.9283 8.99561Z" fill="#1C5883"/>
</svg>
