<svg width="42" height="21" viewBox="0 0 42 21" fill="none" xmlns="http://www.w3.org/2000/svg">
<path d="M2 13.3042C2 11.9049 2.24929 10.6826 2.74787 9.6372C3.26253 8.5918 3.9541 7.78764 4.82259 7.22473C5.70716 6.66183 6.68823 6.38037 7.7658 6.38037C8.69862 6.38037 9.50278 6.56533 10.1783 6.93524C10.8538 7.30515 11.3765 7.80373 11.7464 8.43097V18.2015C11.3765 18.8287 10.8457 19.3273 10.1541 19.6972C9.47865 20.0671 8.68254 20.2521 7.7658 20.2521C6.68823 20.2521 5.70716 19.9706 4.82259 19.4077C3.9541 18.8448 3.26253 18.0406 2.74787 16.9952C2.24929 15.9337 2 14.7034 2 13.3042ZM11.7464 13.3042C11.7464 12.4357 11.5051 11.7521 11.0226 11.2536C10.5562 10.755 9.97723 10.5057 9.28566 10.5057C8.578 10.5057 7.99097 10.755 7.52455 11.2536C7.05814 11.7361 6.82494 12.4196 6.82494 13.3042C6.82494 14.1726 7.05814 14.8642 7.52455 15.3789C7.99097 15.8775 8.578 16.1267 9.28566 16.1267C9.97723 16.1267 10.5562 15.8775 11.0226 15.3789C11.5051 14.8803 11.7464 14.1887 11.7464 13.3042Z" fill="white"/>
<path d="M16.1204 2.14773V20H11.392V2.14773H16.1204Z" fill="white"/>
<path d="M29.0754 6.34542C30.7802 6.34542 32.1151 6.86008 33.0801 7.8894C34.0612 8.91872 34.5517 10.326 34.5517 12.1112V20H29.8233V12.7385C29.8233 12.0147 29.6222 11.4518 29.2201 11.0497C28.8181 10.6477 28.2712 10.4466 27.5797 10.4466C26.8881 10.4466 26.3413 10.6477 25.9392 11.0497C25.5371 11.4518 25.3361 12.0147 25.3361 12.7385V20H20.6076V12.7385C20.6076 12.0147 20.4066 11.4518 20.0045 11.0497C19.6185 10.6477 19.0797 10.4466 18.3882 10.4466C17.6805 10.4466 17.1256 10.6477 16.7236 11.0497C16.3215 11.4518 16.1204 12.0147 16.1204 12.7385V20H11.392V6.46605H16.1204V8.25128C16.5386 7.67228 17.0774 7.21391 17.7368 6.87617C18.4123 6.52234 19.1843 6.34542 20.0528 6.34542C21.0499 6.34542 21.9345 6.56255 22.7065 6.99679C23.4946 7.43104 24.1138 8.04219 24.5641 8.83027C25.0466 8.09044 25.6819 7.49537 26.4699 7.04504C27.258 6.57863 28.1265 6.34542 29.0754 6.34542Z" fill="white"/>
</svg>
